<?xml version="1.0" encoding="UTF-8"?>
<svg xmlns="http://www.w3.org/2000/svg" version="1.1" height="106" width="288">
	<rect height="106" width="288" y="0" x="0" fill="#000"/>
	<path fill="#fee901" d="m20.968,83.301c0,3.7804-2.7431,7.6895-6.3695,8.2317v1.891h15.733v-1.891c-3.6691-0.54219-6.4116-4.4514-6.4116-8.2317v-62.025l16.663,72.105h10.335v-70.973c0.0413-3.7367,2.7845-6.8879,6.4563-7.4334v-2.3964h-15.736v2.3964c3.6277,0.54554,6.3689,3.6966,6.3689,7.4334v44.329l-12.824-54.159h-18.096v2.5202h4.2605l-0.38002,68.197"/>
	<path fill="#fee901" d="m81.628,12.573,0,1.973-3.8789,0,0,76.977,3.9223,0,0,1.8526-22.105,0,0-1.8526,3.925,0,0-76.977-3.883,0,0-1.973,22.02,0,0,0"/>
	<path fill="#fee901" d="m109.56,12.573c11.178,0,15.44,7.2694,15.269,19.706,0.17051,12.479-5.0197,20.25-13.496,20.294,9.2806,0,14.174,7.2694,14.047,19.789v14.582c0,1.3019,1.2659,2.2692,2.7823,2.2692,1.5625,0,2.5764-0.96725,2.5764-2.48v-7.0586h3.2452l-0.0414,3.489c0.21184,6.0913-4.7664,10.293-10.968,10.21-6.2436-0.0418-11.009-4.371-11.009-10.044v-24.032c0.42134-4.8329-2.7004-6.1767-7.4241-5.9273v38.152h4.977v1.8526h-23.127v-1.8526h3.9231v-76.976h-3.894v-1.9731h23.115zm-1.2239,38.152c2.1524,0,3.925-1.7672,3.925-3.9076v-27.562c0-2.1872-1.7726-3.9092-3.925-3.9092h-3.941v35.422l3.9231-0.0435"/>
	<path fill="#fee901" d="m127.82,12.573,19.657,0,0,1.8491-2.7845,0,6.076,50.34c2.5301-15.006,4.8922-30.13,7.4205-45.131,0.55104-3.1929,0.17304-5.3349-2.488-5.2094h-2.1504v-1.8491h11.98v1.8491h-1.9387c-1.5187,0.12383-2.3218,2.3077-2.7837,5.3767l-11.687,73.577h-7.7608l-10.842-78.953h-2.6157l-0.0821-1.8491"/>
	<path fill="#fee901" d="m273.4,93.381-20.841,0,0-1.8526,2.9147,0-1.9018-14.828-10.713,0c-0.54768,3.1929-1.1357,6.426-1.6883,9.6205-0.58968,3.1929-0.168,5.34,2.619,5.2078h2.3133v1.8526h-12.736v-1.8526h2.0664c1.6027-0.12384,2.4477-2.3077,2.9552-5.3751l12.404-73.575h8.2672l11.515,78.949h2.7837l0.0437,1.8526zm-20.208-19.583-4.1344-32.604c-1.937,10.837-3.7901,21.721-5.6918,32.604h9.8262"/>
	<path fill="#fee901" d="m195.28,93.381-19.57,0,0-1.8526,2.7805,0-1.8144-14.828-10.08,0c-0.50568,3.1929-1.055,6.426-1.6027,9.6205-0.54936,3.1929-0.16968,5.34,2.4898,5.2078h2.1554v1.8526h-11.983v-1.8526h1.9387c1.5171-0.12384,2.3234-2.3077,2.787-5.3751l11.683-73.575h7.76l10.844,78.949h2.6125c3.6288-0.54219,6.4142-4.4514,6.4142-8.2317l0.336-68.197h-4.2589v-2.5202h18.137l12.827,54.159v-44.329c0-3.7367-2.7872-6.8879-6.4109-7.4334v-2.3964h15.736v2.3964c-3.6322,0.54554-6.4142,3.6966-6.4142,7.4334v70.973h-10.405l-16.665-72.1v62.024c0,3.7804,2.7805,7.6895,6.4109,8.2317v1.891h-15.737v-0.0386zm-18.938-19.583-3.9245-32.604c-1.8093,10.837-3.543,21.721-5.3139,32.604"/>
</svg>
